<?xml version="1.0" encoding="utf-8" standalone="no"?>
<!-- Created with Inkscape (http://www.inkscape.org/) -->
<svg xmlns:dc="http://purl.org/dc/elements/1.1/" xmlns:cc="http://web.resource.org/cc/" xmlns:rdf="http://www.w3.org/1999/02/22-rdf-syntax-ns#" xmlns:svg="http://www.w3.org/2000/svg" xmlns="http://www.w3.org/2000/svg" xmlns:xlink="http://www.w3.org/1999/xlink" xmlns:sodipodi="http://inkscape.sourceforge.net/DTD/sodipodi-0.dtd" xmlns:inkscape="http://www.inkscape.org/namespaces/inkscape" sodipodi:docname="disk.svg" sodipodi:docbase="/home/kuba/img" inkscape:version="0.41" sodipodi:version="0.32" id="svg9868" height="32px" width="32px">
  <defs id="defs3">
    <linearGradient id="linearGradient9729">
      <stop id="stop9731" offset="0.0000000" style="stop-color:#000000;stop-opacity:1.0000000;" />
      <stop id="stop9733" offset="1.0000000" style="stop-color:#505050;stop-opacity:1.0000000;" />
    </linearGradient>
    <linearGradient y2="335.98526" x2="-219.27190" y1="361.32706" x1="-219.27190" gradientTransform="matrix(1.003848,0.000000,0.000000,0.996167,-208.8437,-332.6020)" gradientUnits="userSpaceOnUse" id="linearGradient9830" xlink:href="#linearGradient9729" inkscape:collect="always" />
    <linearGradient id="linearGradient9798">
      <stop id="stop9800" offset="0.0000000" style="stop-color:#ffffff;stop-opacity:0.0000000;" />
      <stop id="stop9802" offset="1.0000000" style="stop-color:#000000;stop-opacity:1.0000000;" />
    </linearGradient>
    <linearGradient y2="348.18274" x2="221.95897" y1="337.09665" x1="221.86426" gradientTransform="matrix(1.003848,0.000000,0.000000,0.996167,-208.8437,-332.6020)" gradientUnits="userSpaceOnUse" id="linearGradient9815" xlink:href="#linearGradient9798" inkscape:collect="always" />
    <linearGradient id="linearGradient9737">
      <stop id="stop9739" offset="0" style="stop-color:#ffffff;stop-opacity:1;" />
      <stop id="stop9741" offset="1.0000000" style="stop-color:#cfcfcf;stop-opacity:1.0000000;" />
    </linearGradient>
    <linearGradient y2="465.62766" x2="175.02344" y1="449.37189" x1="175.02344" gradientTransform="matrix(1.278660,0.000000,0.000000,0.780622,0.397036,1.189762e-3)" gradientUnits="userSpaceOnUse" id="linearGradient9828" xlink:href="#linearGradient9737" inkscape:collect="always" />
  </defs>
  <sodipodi:namedview inkscape:window-y="98" inkscape:window-x="28" inkscape:window-height="539" inkscape:window-width="640" inkscape:document-units="px" inkscape:grid-bbox="true" showgrid="true" inkscape:current-layer="layer1" inkscape:cy="15.999999" inkscape:cx="16.000000" inkscape:zoom="11.197802" inkscape:pageshadow="2" inkscape:pageopacity="0.0" borderopacity="1.0" bordercolor="#666666" pagecolor="#ffffff" id="base" />
  <metadata id="metadata4">
    <rdf:RDF id="RDF5">
      <cc:Work id="Work6" rdf:about="">
        <dc:format id="format7">image/svg+xml</dc:format>
        <dc:type rdf:resource="http://purl.org/dc/dcmitype/StillImage" id="type9" />
      </cc:Work>
    </rdf:RDF>
  </metadata>
  <g inkscape:groupmode="layer" inkscape:label="Layer 1" id="layer1">
    <path id="rect9686" d="M 2.6875000,1.6792102 C 2.1335000,1.6792102 1.6875000,2.1252102 1.6875000,2.6792102 L 1.6875000,28.960461 C 1.6875000,29.514461 2.1335000,29.960461 2.6875000,29.960461 L 29.187500,29.960461 C 29.741500,29.960461 30.187500,29.514461 30.187500,28.960461 L 30.187500,2.6792102 C 30.187500,2.1252102 29.741500,1.6792102 29.187500,1.6792102 L 2.6875000,1.6792102 z M 2.7812500,27.429211 L 4.0625000,27.429211 C 4.1179000,27.429211 4.1875000,27.467561 4.1875000,27.522961 L 4.1875000,28.741711 C 4.1874900,28.797121 4.1179000,28.835461 4.0625000,28.835461 L 2.7812500,28.835461 C 2.7258400,28.835471 2.6562500,28.797111 2.6562500,28.741711 L 2.6562500,27.522961 C 2.6562500,27.467551 2.7258500,27.429211 2.7812500,27.429211 z M 27.781250,27.585461 L 29.093750,27.585461 C 29.149150,27.585461 29.187500,27.623811 29.187500,27.679211 L 29.187500,28.929211 C 29.187490,28.984621 29.149150,29.022961 29.093750,29.022961 L 27.781250,29.022961 C 27.725840,29.022971 27.687500,28.984611 27.687500,28.929211 L 27.687500,27.679211 C 27.687500,27.623801 27.725850,27.585461 27.781250,27.585461 z" style="color:#000000;fill:url(#linearGradient9830);fill-opacity:1.0000000;fill-rule:nonzero;stroke:none;stroke-width:1.7499987;stroke-linecap:butt;stroke-linejoin:miter;stroke-miterlimit:4.0000000;stroke-dashoffset:0.0000000;stroke-opacity:1.0000000;marker:none;marker-start:none;marker-mid:none;marker-end:none;visibility:visible;display:inline;overflow:visible" />
    <path sodipodi:nodetypes="cccccccccccccccccc" id="rect9765" d="M 10.187500,1.8042102 C 9.8551000,1.8042102 9.5625000,2.0655502 9.5625000,2.3979602 L 9.5625000,12.929211 C 9.5625000,13.261611 9.8550900,13.554211 10.187500,13.554211 L 23.781250,13.554211 C 24.113650,13.554211 24.406250,13.261621 24.406250,12.929211 L 24.406250,2.3979602 C 24.406250,2.0655602 24.113640,1.8042102 23.781250,1.8042102 L 10.187500,1.8042102 z M 19.968920,2.1792102 L 22.093920,2.1792102 C 22.426320,2.1792102 22.687670,2.4405602 22.687670,2.7729602 L 22.687670,12.402561 C 22.687670,12.734971 22.426320,12.996311 22.093920,12.996311 L 19.968920,12.996311 C 19.636510,12.996311 19.375170,12.734961 19.375170,12.402561 L 19.375170,2.7729602 C 19.375170,2.4405502 19.636520,2.1792102 19.968920,2.1792102 z" style="color:#000000;fill:#c2c2c2;fill-opacity:1.0000000;fill-rule:nonzero;stroke:none;stroke-width:0.12500001;stroke-linecap:butt;stroke-linejoin:miter;stroke-miterlimit:4.0000000;stroke-dashoffset:0.0000000;stroke-opacity:1.0000000;marker:none;marker-start:none;marker-mid:none;marker-end:none;visibility:visible;display:inline;overflow:visible" />
    <path id="rect9812" d="M 5.2187500,1.6792102 L 5.2187500,13.335461 C 5.2187500,13.667861 5.4800900,13.960461 5.8125000,13.960461 L 26.406250,13.960461 C 26.738650,13.960461 27.000000,13.667861 27.000000,13.335461 L 27.000000,1.6792102 L 26.656250,1.6792102 L 26.656250,13.022961 C 26.656260,13.355371 26.394900,13.616711 26.062500,13.616711 L 6.2500000,13.616711 C 5.9175900,13.616711 5.6250000,13.355361 5.6250000,13.022961 L 5.6250000,1.6792102 L 5.2187500,1.6792102 z" style="opacity:0.48557690;color:#000000;fill:url(#linearGradient9815);fill-opacity:1.0000000;fill-rule:nonzero;stroke:none;stroke-width:1.7499987;stroke-linecap:butt;stroke-linejoin:miter;stroke-miterlimit:4.0000000;stroke-dashoffset:0.0000000;stroke-opacity:1.0000000;marker:none;marker-start:none;marker-mid:none;marker-end:none;visibility:visible;display:inline;overflow:visible" />
    <g style="display:inline" transform="translate(-208.8437,-332.6020)" id="g9767">
      <rect ry="0.99999851" rx="0.99999946" y="350.12839" x="215.08455" height="12.210000" width="20.000000" id="rect9707" style="color:#000000;fill:url(#linearGradient9828);fill-opacity:1.0000000;fill-rule:nonzero;stroke:none;stroke-width:1.7500000;stroke-linecap:butt;stroke-linejoin:miter;stroke-miterlimit:4.0000000;stroke-dashoffset:0.0000000;stroke-opacity:1.0000000;marker:none;marker-start:none;marker-mid:none;marker-end:none;visibility:visible;display:inline;overflow:visible" />
      <g style="fill:#505050;fill-opacity:1.0000000" transform="translate(0.190224,-1.077936)" id="g9721">
        <rect y="353.36349" x="216.85866" height="0.20871863" width="16.071335" id="rect9709" style="color:#000000;fill-rule:nonzero;stroke:none;stroke-width:1.7500000;stroke-linecap:butt;stroke-linejoin:miter;stroke-miterlimit:4.0000000;stroke-dashoffset:0.0000000;stroke-opacity:1.0000000;marker:none;marker-start:none;marker-mid:none;marker-end:none;visibility:visible;display:inline;overflow:visible" />
        <rect y="355.36349" x="216.85866" height="0.20871863" width="16.071335" id="rect9711" style="color:#000000;fill-rule:nonzero;stroke:none;stroke-width:1.7500000;stroke-linecap:butt;stroke-linejoin:miter;stroke-miterlimit:4.0000000;stroke-dashoffset:0.0000000;stroke-opacity:1.0000000;marker:none;marker-start:none;marker-mid:none;marker-end:none;visibility:visible;display:inline;overflow:visible" />
        <rect y="357.36349" x="216.85866" height="0.20871863" width="16.071335" id="rect9713" style="color:#000000;fill-rule:nonzero;stroke:none;stroke-width:1.7500000;stroke-linecap:butt;stroke-linejoin:miter;stroke-miterlimit:4.0000000;stroke-dashoffset:0.0000000;stroke-opacity:1.0000000;marker:none;marker-start:none;marker-mid:none;marker-end:none;visibility:visible;display:inline;overflow:visible" />
        <rect y="359.36349" x="216.85866" height="0.20871863" width="16.071335" id="rect9715" style="color:#000000;fill-rule:nonzero;stroke:none;stroke-width:1.7500000;stroke-linecap:butt;stroke-linejoin:miter;stroke-miterlimit:4.0000000;stroke-dashoffset:0.0000000;stroke-opacity:1.0000000;marker:none;marker-start:none;marker-mid:none;marker-end:none;visibility:visible;display:inline;overflow:visible" />
        <rect y="361.36349" x="216.85866" height="0.20871863" width="16.071335" id="rect9717" style="color:#000000;fill-rule:nonzero;stroke:none;stroke-width:1.7500000;stroke-linecap:butt;stroke-linejoin:miter;stroke-miterlimit:4.0000000;stroke-dashoffset:0.0000000;stroke-opacity:1.0000000;marker:none;marker-start:none;marker-mid:none;marker-end:none;visibility:visible;display:inline;overflow:visible" />
        <rect y="361.36349" x="216.85866" height="0.20871863" width="16.071335" id="rect9719" style="color:#000000;fill-rule:nonzero;stroke:none;stroke-width:1.7500000;stroke-linecap:butt;stroke-linejoin:miter;stroke-miterlimit:4.0000000;stroke-dashoffset:0.0000000;stroke-opacity:1.0000000;marker:none;marker-start:none;marker-mid:none;marker-end:none;visibility:visible;display:inline;overflow:visible" />
      </g>
      <path id="path9763" d="M 218.86779,354.31308 C 218.82616,353.95969 218.68028,353.59559 218.76658,353.25037 C 218.78892,353.16101 219.12082,354.71150 219.12082,354.31308 C 219.12082,354.07013 218.85747,352.36943 219.27263,353.19977 C 219.33662,353.32774 219.42445,355.12855 219.42445,353.95885 C 219.42445,353.03678 219.77869,352.97956 219.77869,353.95885 C 219.77869,354.21547 219.71972,352.80372 219.62687,352.33948 C 219.61539,352.28205 219.93517,352.90547 220.23413,353.50340 C 220.23617,353.50746 220.41472,352.65106 220.43656,352.54190 C 220.46964,352.37649 220.68478,352.78288 220.84140,352.84553 C 220.97055,352.89719 220.88040,352.56510 220.94261,352.44069 C 220.96000,352.40591 220.98295,353.20685 220.63898,354.00945 C 220.38897,354.59279 220.12513,353.75244 220.08232,353.45279 C 220.00981,352.94521 221.07404,353.80439 221.54987,354.16127 C 222.01140,354.50741 222.00532,353.38470 222.00532,353.14916 C 222.00532,352.82680 222.10653,354.19096 222.10653,353.60461 C 222.10653,352.74732 222.35959,354.00948 222.71379,354.36369 C 222.87950,354.52939 222.98100,353.97401 223.06803,353.75642 C 223.22587,353.36182 223.08953,353.47429 223.42227,353.80703 C 223.44919,353.83395 223.52835,353.34121 223.87771,353.80703 C 224.01496,353.99003 224.02394,353.34600 224.38377,353.70582 C 224.65171,353.97376 224.92248,353.65970 225.14285,353.60461 C 225.39361,353.54192 225.29809,353.95541 225.69950,353.55400 C 225.72203,353.53147 226.14368,353.86327 226.35737,353.75642 C 226.55581,353.65720 226.82338,353.08582 226.86343,352.84553 C 226.87424,352.78062 227.21471,353.10151 227.42008,352.89613 C 227.86939,352.44683 227.61408,351.67318 228.22977,352.28887 C 228.80699,352.86609 229.12624,352.65018 229.29248,351.98524 C 229.30721,351.92629 228.91177,353.31655 228.73582,353.75642 C 228.58230,354.14022 228.33647,353.77898 228.68521,353.60461 C 228.99536,353.44954 229.58530,353.99717 229.89974,354.06006 C 230.43556,354.16722 230.33048,353.35158 230.70943,353.35158 C 230.87096,353.35158 230.78402,353.30185 230.86124,353.25037" style="fill:none;fill-opacity:0.75000000;fill-rule:evenodd;stroke:#dfdf34;stroke-width:0.12500000;stroke-linecap:butt;stroke-linejoin:miter;stroke-miterlimit:4.0000000;stroke-opacity:1.0000000" />
    </g>
    <rect rx="0.10000000" ry="0.10000000" y="26.000000" x="2.6695516" height="1.4343020" width="1.5026019" id="rect9824" style="opacity:0.22596152;color:#000000;fill:#4d4d4d;fill-opacity:1.0000000;fill-rule:nonzero;stroke:none;stroke-width:0.37500000;stroke-linecap:butt;stroke-linejoin:miter;stroke-miterlimit:4.0000000;stroke-dashoffset:0.0000000;stroke-opacity:1.0000000;marker:none;marker-start:none;marker-mid:none;marker-end:none;visibility:visible;display:inline;overflow:visible" />
  </g>
</svg>
