<?xml version="1.0" encoding="UTF-8" standalone="no"?>
<!-- Created with Inkscape (http://www.inkscape.org/) -->

<svg
   xmlns:dc="http://purl.org/dc/elements/1.1/"
   xmlns:cc="http://creativecommons.org/ns#"
   xmlns:rdf="http://www.w3.org/1999/02/22-rdf-syntax-ns#"
   xmlns:svg="http://www.w3.org/2000/svg"
   xmlns="http://www.w3.org/2000/svg"
   xmlns:xlink="http://www.w3.org/1999/xlink"
   xmlns:sodipodi="http://sodipodi.sourceforge.net/DTD/sodipodi-0.dtd"
   xmlns:inkscape="http://www.inkscape.org/namespaces/inkscape"
   width="300"
   height="300"
   id="svg2"
   version="1.1"
   inkscape:version="0.47 r22583"
   sodipodi:docname="Move.svg">
  <defs
     id="defs4">
    <linearGradient
       inkscape:collect="always"
       id="linearGradient2927">
      <stop
         style="stop-color:#28170b;stop-opacity:1;"
         offset="0"
         id="stop2929" />
      <stop
         style="stop-color:#28170b;stop-opacity:0;"
         offset="1"
         id="stop2931" />
    </linearGradient>
    <inkscape:perspective
       sodipodi:type="inkscape:persp3d"
       inkscape:vp_x="0 : 526.18109 : 1"
       inkscape:vp_y="0 : 1000 : 0"
       inkscape:vp_z="744.09448 : 526.18109 : 1"
       inkscape:persp3d-origin="372.04724 : 350.78739 : 1"
       id="perspective10" />
    <inkscape:perspective
       id="perspective2837"
       inkscape:persp3d-origin="0.5 : 0.33333333 : 1"
       inkscape:vp_z="1 : 0.5 : 1"
       inkscape:vp_y="0 : 1000 : 0"
       inkscape:vp_x="0 : 0.5 : 1"
       sodipodi:type="inkscape:persp3d" />
    <inkscape:perspective
       id="perspective2874"
       inkscape:persp3d-origin="0.5 : 0.33333333 : 1"
       inkscape:vp_z="1 : 0.5 : 1"
       inkscape:vp_y="0 : 1000 : 0"
       inkscape:vp_x="0 : 0.5 : 1"
       sodipodi:type="inkscape:persp3d" />
    <inkscape:perspective
       id="perspective2935"
       inkscape:persp3d-origin="0.5 : 0.33333333 : 1"
       inkscape:vp_z="1 : 0.5 : 1"
       inkscape:vp_y="0 : 1000 : 0"
       inkscape:vp_x="0 : 0.5 : 1"
       sodipodi:type="inkscape:persp3d" />
    <inkscape:perspective
       id="perspective2935-0"
       inkscape:persp3d-origin="0.5 : 0.33333333 : 1"
       inkscape:vp_z="1 : 0.5 : 1"
       inkscape:vp_y="0 : 1000 : 0"
       inkscape:vp_x="0 : 0.5 : 1"
       sodipodi:type="inkscape:persp3d" />
    <inkscape:perspective
       id="perspective2935-4"
       inkscape:persp3d-origin="0.5 : 0.33333333 : 1"
       inkscape:vp_z="1 : 0.5 : 1"
       inkscape:vp_y="0 : 1000 : 0"
       inkscape:vp_x="0 : 0.5 : 1"
       sodipodi:type="inkscape:persp3d" />
    <inkscape:perspective
       id="perspective2935-8"
       inkscape:persp3d-origin="0.5 : 0.33333333 : 1"
       inkscape:vp_z="1 : 0.5 : 1"
       inkscape:vp_y="0 : 1000 : 0"
       inkscape:vp_x="0 : 0.5 : 1"
       sodipodi:type="inkscape:persp3d" />
    <inkscape:perspective
       id="perspective2935-45"
       inkscape:persp3d-origin="0.5 : 0.33333333 : 1"
       inkscape:vp_z="1 : 0.5 : 1"
       inkscape:vp_y="0 : 1000 : 0"
       inkscape:vp_x="0 : 0.5 : 1"
       sodipodi:type="inkscape:persp3d" />
    <inkscape:perspective
       id="perspective2935-1"
       inkscape:persp3d-origin="0.5 : 0.33333333 : 1"
       inkscape:vp_z="1 : 0.5 : 1"
       inkscape:vp_y="0 : 1000 : 0"
       inkscape:vp_x="0 : 0.5 : 1"
       sodipodi:type="inkscape:persp3d" />
    <inkscape:perspective
       id="perspective2935-11"
       inkscape:persp3d-origin="0.5 : 0.33333333 : 1"
       inkscape:vp_z="1 : 0.5 : 1"
       inkscape:vp_y="0 : 1000 : 0"
       inkscape:vp_x="0 : 0.5 : 1"
       sodipodi:type="inkscape:persp3d" />
    <inkscape:perspective
       id="perspective2935-7"
       inkscape:persp3d-origin="0.5 : 0.33333333 : 1"
       inkscape:vp_z="1 : 0.5 : 1"
       inkscape:vp_y="0 : 1000 : 0"
       inkscape:vp_x="0 : 0.5 : 1"
       sodipodi:type="inkscape:persp3d" />
    <inkscape:perspective
       id="perspective3020"
       inkscape:persp3d-origin="0.5 : 0.33333333 : 1"
       inkscape:vp_z="1 : 0.5 : 1"
       inkscape:vp_y="0 : 1000 : 0"
       inkscape:vp_x="0 : 0.5 : 1"
       sodipodi:type="inkscape:persp3d" />
    <linearGradient
       inkscape:collect="always"
       xlink:href="#linearGradient2927"
       id="linearGradient2933"
       x1="282.43161"
       y1="973.34857"
       x2="279.90991"
       y2="751.50977"
       gradientUnits="userSpaceOnUse"
       gradientTransform="translate(-1.6811406,0)" />
    <inkscape:perspective
       id="perspective2947"
       inkscape:persp3d-origin="0.5 : 0.33333333 : 1"
       inkscape:vp_z="1 : 0.5 : 1"
       inkscape:vp_y="0 : 1000 : 0"
       inkscape:vp_x="0 : 0.5 : 1"
       sodipodi:type="inkscape:persp3d" />
    <inkscape:perspective
       id="perspective2975"
       inkscape:persp3d-origin="0.5 : 0.33333333 : 1"
       inkscape:vp_z="1 : 0.5 : 1"
       inkscape:vp_y="0 : 1000 : 0"
       inkscape:vp_x="0 : 0.5 : 1"
       sodipodi:type="inkscape:persp3d" />
    <inkscape:perspective
       id="perspective2932"
       inkscape:persp3d-origin="0.5 : 0.33333333 : 1"
       inkscape:vp_z="1 : 0.5 : 1"
       inkscape:vp_y="0 : 1000 : 0"
       inkscape:vp_x="0 : 0.5 : 1"
       sodipodi:type="inkscape:persp3d" />
    <inkscape:perspective
       id="perspective3797"
       inkscape:persp3d-origin="0.5 : 0.33333333 : 1"
       inkscape:vp_z="1 : 0.5 : 1"
       inkscape:vp_y="0 : 1000 : 0"
       inkscape:vp_x="0 : 0.5 : 1"
       sodipodi:type="inkscape:persp3d" />
    <inkscape:perspective
       id="perspective3819"
       inkscape:persp3d-origin="0.5 : 0.33333333 : 1"
       inkscape:vp_z="1 : 0.5 : 1"
       inkscape:vp_y="0 : 1000 : 0"
       inkscape:vp_x="0 : 0.5 : 1"
       sodipodi:type="inkscape:persp3d" />
    <inkscape:perspective
       id="perspective3841"
       inkscape:persp3d-origin="0.5 : 0.33333333 : 1"
       inkscape:vp_z="1 : 0.5 : 1"
       inkscape:vp_y="0 : 1000 : 0"
       inkscape:vp_x="0 : 0.5 : 1"
       sodipodi:type="inkscape:persp3d" />
    <inkscape:perspective
       id="perspective3841-0"
       inkscape:persp3d-origin="0.5 : 0.33333333 : 1"
       inkscape:vp_z="1 : 0.5 : 1"
       inkscape:vp_y="0 : 1000 : 0"
       inkscape:vp_x="0 : 0.5 : 1"
       sodipodi:type="inkscape:persp3d" />
    <inkscape:perspective
       id="perspective3918"
       inkscape:persp3d-origin="0.5 : 0.33333333 : 1"
       inkscape:vp_z="1 : 0.5 : 1"
       inkscape:vp_y="0 : 1000 : 0"
       inkscape:vp_x="0 : 0.5 : 1"
       sodipodi:type="inkscape:persp3d" />
    <inkscape:perspective
       id="perspective3918-8"
       inkscape:persp3d-origin="0.5 : 0.33333333 : 1"
       inkscape:vp_z="1 : 0.5 : 1"
       inkscape:vp_y="0 : 1000 : 0"
       inkscape:vp_x="0 : 0.5 : 1"
       sodipodi:type="inkscape:persp3d" />
    <inkscape:perspective
       id="perspective3959"
       inkscape:persp3d-origin="0.5 : 0.33333333 : 1"
       inkscape:vp_z="1 : 0.5 : 1"
       inkscape:vp_y="0 : 1000 : 0"
       inkscape:vp_x="0 : 0.5 : 1"
       sodipodi:type="inkscape:persp3d" />
    <inkscape:perspective
       id="perspective4055"
       inkscape:persp3d-origin="0.5 : 0.33333333 : 1"
       inkscape:vp_z="1 : 0.5 : 1"
       inkscape:vp_y="0 : 1000 : 0"
       inkscape:vp_x="0 : 0.5 : 1"
       sodipodi:type="inkscape:persp3d" />
    <inkscape:perspective
       id="perspective4130"
       inkscape:persp3d-origin="0.5 : 0.33333333 : 1"
       inkscape:vp_z="1 : 0.5 : 1"
       inkscape:vp_y="0 : 1000 : 0"
       inkscape:vp_x="0 : 0.5 : 1"
       sodipodi:type="inkscape:persp3d" />
    <inkscape:perspective
       id="perspective4164"
       inkscape:persp3d-origin="0.5 : 0.33333333 : 1"
       inkscape:vp_z="1 : 0.5 : 1"
       inkscape:vp_y="0 : 1000 : 0"
       inkscape:vp_x="0 : 0.5 : 1"
       sodipodi:type="inkscape:persp3d" />
    <inkscape:perspective
       id="perspective4198"
       inkscape:persp3d-origin="0.5 : 0.33333333 : 1"
       inkscape:vp_z="1 : 0.5 : 1"
       inkscape:vp_y="0 : 1000 : 0"
       inkscape:vp_x="0 : 0.5 : 1"
       sodipodi:type="inkscape:persp3d" />
    <inkscape:perspective
       id="perspective4232"
       inkscape:persp3d-origin="0.5 : 0.33333333 : 1"
       inkscape:vp_z="1 : 0.5 : 1"
       inkscape:vp_y="0 : 1000 : 0"
       inkscape:vp_x="0 : 0.5 : 1"
       sodipodi:type="inkscape:persp3d" />
    <inkscape:perspective
       id="perspective4276"
       inkscape:persp3d-origin="0.5 : 0.33333333 : 1"
       inkscape:vp_z="1 : 0.5 : 1"
       inkscape:vp_y="0 : 1000 : 0"
       inkscape:vp_x="0 : 0.5 : 1"
       sodipodi:type="inkscape:persp3d" />
    <inkscape:perspective
       id="perspective4312"
       inkscape:persp3d-origin="0.5 : 0.33333333 : 1"
       inkscape:vp_z="1 : 0.5 : 1"
       inkscape:vp_y="0 : 1000 : 0"
       inkscape:vp_x="0 : 0.5 : 1"
       sodipodi:type="inkscape:persp3d" />
    <inkscape:perspective
       id="perspective4334"
       inkscape:persp3d-origin="0.5 : 0.33333333 : 1"
       inkscape:vp_z="1 : 0.5 : 1"
       inkscape:vp_y="0 : 1000 : 0"
       inkscape:vp_x="0 : 0.5 : 1"
       sodipodi:type="inkscape:persp3d" />
    <inkscape:perspective
       id="perspective2894"
       inkscape:persp3d-origin="0.5 : 0.33333333 : 1"
       inkscape:vp_z="1 : 0.5 : 1"
       inkscape:vp_y="0 : 1000 : 0"
       inkscape:vp_x="0 : 0.5 : 1"
       sodipodi:type="inkscape:persp3d" />
    <inkscape:perspective
       id="perspective2931"
       inkscape:persp3d-origin="0.5 : 0.33333333 : 1"
       inkscape:vp_z="1 : 0.5 : 1"
       inkscape:vp_y="0 : 1000 : 0"
       inkscape:vp_x="0 : 0.5 : 1"
       sodipodi:type="inkscape:persp3d" />
    <inkscape:perspective
       id="perspective2955"
       inkscape:persp3d-origin="0.5 : 0.33333333 : 1"
       inkscape:vp_z="1 : 0.5 : 1"
       inkscape:vp_y="0 : 1000 : 0"
       inkscape:vp_x="0 : 0.5 : 1"
       sodipodi:type="inkscape:persp3d" />
    <filter
       id="filter2974"
       inkscape:label="Invert"
       x="0"
       y="0"
       width="1"
       height="1"
       inkscape:menu="Color"
       inkscape:menu-tooltip="Invert colors"
       color-interpolation-filters="sRGB">
      <feColorMatrix
         id="feColorMatrix2976"
         type="saturate"
         values="1"
         result="fbSourceGraphic" />
      <feColorMatrix
         id="feColorMatrix2978"
         in="fbSourceGraphic"
         values="-1 0 0 0 1 0 -1 0 0 1 0 0 -1 0 1 0 0 0 1 0 " />
    </filter>
    <inkscape:perspective
       id="perspective3138"
       inkscape:persp3d-origin="0.5 : 0.33333333 : 1"
       inkscape:vp_z="1 : 0.5 : 1"
       inkscape:vp_y="0 : 1000 : 0"
       inkscape:vp_x="0 : 0.5 : 1"
       sodipodi:type="inkscape:persp3d" />
    <clipPath
       clipPathUnits="userSpaceOnUse"
       id="clipPath3154">
      <rect
         style="fill:#0000ff;fill-rule:evenodd;stroke:#000000;stroke-width:1px;stroke-linecap:butt;stroke-linejoin:miter;stroke-opacity:1"
         id="rect3156"
         width="109.27414"
         height="110.11471"
         x="-325.30069"
         y="954.85608" />
    </clipPath>
    <filter
       id="filter3160"
       inkscape:label="Invert"
       x="0"
       y="0"
       width="1"
       height="1"
       inkscape:menu="Color"
       inkscape:menu-tooltip="Invert colors"
       color-interpolation-filters="sRGB">
      <feColorMatrix
         id="feColorMatrix3162"
         type="saturate"
         values="1"
         result="fbSourceGraphic" />
      <feColorMatrix
         id="feColorMatrix3164"
         in="fbSourceGraphic"
         values="-1 0 0 0 1 0 -1 0 0 1 0 0 -1 0 1 0 0 0 1 0 " />
    </filter>
    <filter
       id="filter3176"
       inkscape:label="Invert"
       x="0"
       y="0"
       width="1"
       height="1"
       inkscape:menu="Color"
       inkscape:menu-tooltip="Invert colors"
       color-interpolation-filters="sRGB">
      <feColorMatrix
         id="feColorMatrix3178"
         type="saturate"
         values="1"
         result="fbSourceGraphic" />
      <feColorMatrix
         id="feColorMatrix3180"
         in="fbSourceGraphic"
         values="-1 0 0 0 1 0 -1 0 0 1 0 0 -1 0 1 0 0 0 1 0 " />
    </filter>
    <inkscape:perspective
       id="perspective3356"
       inkscape:persp3d-origin="0.5 : 0.33333333 : 1"
       inkscape:vp_z="1 : 0.5 : 1"
       inkscape:vp_y="0 : 1000 : 0"
       inkscape:vp_x="0 : 0.5 : 1"
       sodipodi:type="inkscape:persp3d" />
    <linearGradient
       id="linearGradient8662"
       inkscape:collect="always">
      <stop
         id="stop8664"
         offset="0"
         style="stop-color:#000000;stop-opacity:1;" />
      <stop
         id="stop8666"
         offset="1"
         style="stop-color:#000000;stop-opacity:0;" />
    </linearGradient>
    <linearGradient
       id="linearGradient2304">
      <stop
         style="stop-color:#ef2929;stop-opacity:1;"
         offset="0"
         id="stop2306" />
      <stop
         style="stop-color:#cc0000;stop-opacity:1;"
         offset="1"
         id="stop2308" />
    </linearGradient>
    <linearGradient
       id="linearGradient8650"
       inkscape:collect="always">
      <stop
         id="stop8652"
         offset="0"
         style="stop-color:#ffffff;stop-opacity:1;" />
      <stop
         id="stop8654"
         offset="1"
         style="stop-color:#ffffff;stop-opacity:0;" />
    </linearGradient>
    <linearGradient
       id="linearGradient2591">
      <stop
         id="stop2593"
         offset="0"
         style="stop-color:#ef2929;stop-opacity:1;" />
      <stop
         id="stop2595"
         offset="1"
         style="stop-color:#cc0000;stop-opacity:1;" />
    </linearGradient>
    <linearGradient
       id="linearGradient3398">
      <stop
         id="stop3400"
         offset="0"
         style="stop-color:#ef2929;stop-opacity:1;" />
      <stop
         id="stop3402"
         offset="1"
         style="stop-color:#cc0000;stop-opacity:1;" />
    </linearGradient>
    <linearGradient
       id="linearGradient1442">
      <stop
         id="stop1444"
         offset="0"
         style="stop-color:#ef2929;stop-opacity:1;" />
      <stop
         id="stop1446"
         offset="1"
         style="stop-color:#cc0000;stop-opacity:1;" />
    </linearGradient>
    <radialGradient
       inkscape:collect="always"
       xlink:href="#linearGradient8662"
       id="radialGradient3614"
       gradientUnits="userSpaceOnUse"
       gradientTransform="matrix(1,0,0,0.536723,0,16.87306)"
       cx="24.837126"
       cy="36.421127"
       fx="24.837126"
       fy="36.421127"
       r="15.644737" />
    <radialGradient
       inkscape:collect="always"
       xlink:href="#linearGradient1442"
       id="radialGradient3616"
       gradientUnits="userSpaceOnUse"
       gradientTransform="matrix(0,0.843022,-1.020168,0,45.890239,1.381542)"
       cx="35.292667"
       cy="20.494493"
       fx="35.292667"
       fy="20.494493"
       r="16.9562" />
    <radialGradient
       inkscape:collect="always"
       xlink:href="#linearGradient8650"
       id="radialGradient3618"
       gradientUnits="userSpaceOnUse"
       gradientTransform="matrix(0,2.046729,1.55761,0,2.381085,-22.965068)"
       cx="15.987216"
       cy="1.5350308"
       fx="15.987216"
       fy="1.5350308"
       r="17.171415" />
    <radialGradient
       inkscape:collect="always"
       xlink:href="#linearGradient8662"
       id="radialGradient3620"
       gradientUnits="userSpaceOnUse"
       gradientTransform="matrix(1,0,0,0.536723,0,16.87306)"
       cx="24.837126"
       cy="36.421127"
       fx="24.837126"
       fy="36.421127"
       r="15.644737" />
    <radialGradient
       inkscape:collect="always"
       xlink:href="#linearGradient2591"
       id="radialGradient3622"
       gradientUnits="userSpaceOnUse"
       gradientTransform="matrix(0.843022,0,0,1.020168,37.426719,-31.723417)"
       cx="22.291636"
       cy="32.797512"
       fx="22.291636"
       fy="32.797512"
       r="16.9562" />
    <radialGradient
       inkscape:collect="always"
       xlink:href="#linearGradient8650"
       id="radialGradient3624"
       gradientUnits="userSpaceOnUse"
       gradientTransform="matrix(2.046729,0,0,1.55761,13.409431,-29.653323)"
       cx="19.701141"
       cy="2.8969381"
       fx="19.701141"
       fy="2.8969381"
       r="17.171415" />
    <radialGradient
       inkscape:collect="always"
       xlink:href="#linearGradient8662"
       id="radialGradient3626"
       gradientUnits="userSpaceOnUse"
       gradientTransform="matrix(1,0,0,0.536723,0,16.87306)"
       cx="24.837126"
       cy="36.421127"
       fx="24.837126"
       fy="36.421127"
       r="15.644737" />
    <radialGradient
       inkscape:collect="always"
       xlink:href="#linearGradient2591"
       id="radialGradient3628"
       gradientUnits="userSpaceOnUse"
       gradientTransform="matrix(0.843022,0,0,1.020168,-31.528414,-31.792771)"
       cx="22.291636"
       cy="32.797512"
       fx="22.291636"
       fy="32.797512"
       r="16.9562" />
    <radialGradient
       inkscape:collect="always"
       xlink:href="#linearGradient8650"
       id="radialGradient3630"
       gradientUnits="userSpaceOnUse"
       gradientTransform="matrix(2.046729,0,0,1.55761,-55.545702,-29.722677)"
       cx="19.701141"
       cy="2.8969381"
       fx="19.701141"
       fy="2.8969381"
       r="17.171415" />
    <radialGradient
       inkscape:collect="always"
       xlink:href="#linearGradient8662"
       id="radialGradient3632"
       gradientUnits="userSpaceOnUse"
       gradientTransform="matrix(1,0,0,0.536723,0,16.87306)"
       cx="24.837126"
       cy="36.421127"
       fx="24.837126"
       fy="36.421127"
       r="15.644737" />
    <radialGradient
       inkscape:collect="always"
       xlink:href="#linearGradient2304"
       id="radialGradient3634"
       gradientUnits="userSpaceOnUse"
       gradientTransform="matrix(0,-0.843022,1.020168,0,0.1007837,-23.539238)"
       cx="11.319205"
       cy="22.454971"
       fx="11.319205"
       fy="22.454971"
       r="16.9562" />
    <radialGradient
       inkscape:collect="always"
       xlink:href="#linearGradient8650"
       id="radialGradient3636"
       gradientUnits="userSpaceOnUse"
       gradientTransform="matrix(0,-2.046729,1.55761,0,2.2613567,0.807372)"
       cx="24.53788"
       cy="0.40010813"
       fx="24.53788"
       fy="0.40010813"
       r="17.171415" />
  </defs>
  <sodipodi:namedview
     id="base"
     pagecolor="#ffffff"
     bordercolor="#666666"
     borderopacity="1.0"
     inkscape:pageopacity="0.0"
     inkscape:pageshadow="2"
     inkscape:zoom="0.84122266"
     inkscape:cx="9.1225191"
     inkscape:cy="150.88777"
     inkscape:document-units="px"
     inkscape:current-layer="layer6"
     showgrid="false"
     inkscape:window-width="1280"
     inkscape:window-height="738"
     inkscape:window-x="-8"
     inkscape:window-y="-8"
     inkscape:window-maximized="1" />
  <metadata
     id="metadata7">
    <rdf:RDF>
      <cc:Work
         rdf:about="">
        <dc:format>image/svg+xml</dc:format>
        <dc:type
           rdf:resource="http://purl.org/dc/dcmitype/StillImage" />
        <dc:title></dc:title>
      </cc:Work>
    </rdf:RDF>
  </metadata>
  <g
     inkscape:groupmode="layer"
     id="layer6"
     inkscape:label="Transparent Bkgrd"
     style="display:inline">
    <rect
       style="fill:none"
       id="rect3035"
       width="303.44589"
       height="302.60532"
       x="-0.84056729"
       y="-1.7647245"
       rx="0"
       ry="0"
       inkscape:export-filename="D:\camcansvn\CCUI\CameraCanvasUI\Icons\Move.png"
       inkscape:export-xdpi="90"
       inkscape:export-ydpi="90" />
    <path
       style="fill:none"
       d=""
       id="path3867" />
    <path
       style="fill:none"
       d="m 10.655083,297.87851 c -2.0375471,-1.0757 -4.8394016,-3.56689 -6.2263426,-5.536 L 1.9070296,288.76235 1.6581441,151.61153 C 1.4842294,55.774134 1.680876,13.522613 2.310964,11.346451 3.5257046,7.151052 6.9980492,3.2023918 11.118528,1.330718 c 3.250647,-1.47656384 9.294249,-1.54386377 140.226872,-1.56152877 121.62785,-0.0164096 137.17574,0.12607924 139.94348,1.28251337 3.96293,1.6558216 6.65998,4.1788507 8.68212,8.1219552 1.55304,3.0283642 1.5988,7.0923672 1.58088,140.3752422 -0.0177,131.64678 -0.0819,137.394 -1.57025,140.61886 -1.87805,4.06919 -4.53911,6.63009 -8.69275,8.36559 -2.76713,1.15619 -18.35081,1.30097 -140.02142,1.30097 l -136.907746,0 -3.704631,-1.95581 0,0 z M 283.6609,291.81977 c 2.749,-1.36988 5.13376,-3.39562 6.67946,-5.67385 l 2.40399,-3.54329 0,-22.8323 0,-22.8323 -2.52171,-3.58113 c -1.38694,-1.96962 -4.1888,-4.46125 -6.22634,-5.53695 l -3.70464,-1.95581 -130.39836,0 -130.398363,0 -3.701807,1.89128 c -5.218583,2.66621 -8.2199579,6.79172 -9.3369311,12.834 -0.5630153,3.04563 -0.8033227,11.95763 -0.6114175,22.67493 0.2869777,16.0268 0.480889,17.96759 2.1001159,21.01942 0.9811699,1.84926 2.7305347,4.24561 3.8874777,5.32522 4.772286,4.45331 -1.275823,4.26475 138.060135,4.30445 l 129.49292,0.0369 4.27547,-2.13056 z M 165.96228,199.38559 c 19.07978,-1.5207 30.90493,-3.65559 43.91919,-7.9291 37.65406,-12.36448 64.73797,-38.84755 71.62691,-70.03791 2.05632,-9.31018 1.83054,-25.536736 -0.4707,-33.828256 C 274.89886,65.471726 258.61715,45.579539 235.69711,32.19546 202.85569,13.017835 158.2037,7.7255922 119.24624,18.393472 93.222434,25.519674 69.248684,40.84698 55.258077,59.303466 c -5.155369,6.80099 -12.117316,20.586392 -13.861011,27.446288 -1.972265,7.759111 -2.839883,18.630466 -2.079604,26.057676 0.861701,8.41801 1.274436,10.29427 3.94393,17.92878 l 2.154191,6.1608 -3.401312,3.50576 c -20.144562,20.76318 0.179396,44.03821 47.732354,54.66315 23.579335,5.26842 47.384245,6.61761 76.215655,4.31967 z"
       id="path3869"
       inkscape:export-filename="D:\camcansvn\CCUI\CameraCanvasUI\Icons\Move.png"
       inkscape:export-xdpi="90"
       inkscape:export-ydpi="90" />
    <path
       style="fill:none"
       d="m 10.655083,297.87851 c -2.0375471,-1.0757 -4.8394016,-3.56689 -6.2263426,-5.536 L 1.9070296,288.76235 1.6581441,151.61153 C 1.4842294,55.774134 1.680876,13.522613 2.310964,11.346451 3.5257046,7.151052 6.9980492,3.2023918 11.118528,1.330718 c 3.250647,-1.47656384 9.294249,-1.54386377 140.226872,-1.56152877 121.62785,-0.0164096 137.17574,0.12607924 139.94348,1.28251337 3.96293,1.6558216 6.65998,4.1788507 8.68212,8.1219552 1.55304,3.0283642 1.5988,7.0923672 1.58088,140.3752422 -0.0177,131.64678 -0.0819,137.394 -1.57025,140.61886 -1.87805,4.06919 -4.53911,6.63009 -8.69275,8.36559 -2.76713,1.15619 -18.35081,1.30097 -140.02142,1.30097 l -136.907746,0 -3.704631,-1.95581 0,0 z M 283.6609,291.81977 c 2.749,-1.36988 5.13376,-3.39562 6.67946,-5.67385 l 2.40399,-3.54329 0,-22.8323 0,-22.8323 -2.52171,-3.58113 c -1.38694,-1.96962 -4.1888,-4.46125 -6.22634,-5.53695 l -3.70464,-1.95581 -130.39836,0 -130.398363,0 -3.701807,1.89128 c -5.218583,2.66621 -8.2199579,6.79172 -9.3369311,12.834 -0.5630153,3.04563 -0.8033227,11.95763 -0.6114175,22.67493 0.2869777,16.0268 0.480889,17.96759 2.1001159,21.01942 0.9811699,1.84926 2.7305347,4.24561 3.8874777,5.32522 4.772286,4.45331 -1.275823,4.26475 138.060135,4.30445 l 129.49292,0.0369 4.27547,-2.13056 z M 165.96228,199.38559 c 19.07978,-1.5207 30.90493,-3.65559 43.91919,-7.9291 37.65406,-12.36448 64.73797,-38.84755 71.62691,-70.03791 2.05632,-9.31018 1.83054,-25.536736 -0.4707,-33.828256 C 274.89886,65.471726 258.61715,45.579539 235.69711,32.19546 202.85569,13.017835 158.2037,7.7255922 119.24624,18.393472 93.222434,25.519674 69.248684,40.84698 55.258077,59.303466 c -5.155369,6.80099 -12.117316,20.586392 -13.861011,27.446288 -1.972265,7.759111 -2.839883,18.630466 -2.079604,26.057676 0.861701,8.41801 1.274436,10.29427 3.94393,17.92878 l 2.154191,6.1608 -3.401312,3.50576 c -20.144562,20.76318 0.179396,44.03821 47.732354,54.66315 23.579335,5.26842 47.384245,6.61761 76.215655,4.31967 z"
       id="path3871"
       inkscape:export-filename="D:\camcansvn\CCUI\CameraCanvasUI\Icons\Move.png"
       inkscape:export-xdpi="90"
       inkscape:export-ydpi="90" />
    <path
       style="fill:none"
       d="m 10.655083,297.87851 c -2.0375471,-1.0757 -4.8394016,-3.56689 -6.2263426,-5.536 L 1.9070296,288.76235 1.6581441,151.61153 C 1.4842294,55.774134 1.680876,13.522613 2.310964,11.346451 3.5257046,7.151052 6.9980492,3.2023918 11.118528,1.330718 c 3.250647,-1.47656384 9.294249,-1.54386377 140.226872,-1.56152877 121.62785,-0.0164096 137.17574,0.12607924 139.94348,1.28251337 3.96293,1.6558216 6.65998,4.1788507 8.68212,8.1219552 1.55304,3.0283642 1.5988,7.0923672 1.58088,140.3752422 -0.0177,131.64678 -0.0819,137.394 -1.57025,140.61886 -1.87805,4.06919 -4.53911,6.63009 -8.69275,8.36559 -2.76713,1.15619 -18.35081,1.30097 -140.02142,1.30097 l -136.907746,0 -3.704631,-1.95581 0,0 z M 283.6609,291.81977 c 2.749,-1.36988 5.13376,-3.39562 6.67946,-5.67385 l 2.40399,-3.54329 0,-22.8323 0,-22.8323 -2.52171,-3.58113 c -1.38694,-1.96962 -4.1888,-4.46125 -6.22634,-5.53695 l -3.70464,-1.95581 -130.39836,0 -130.398363,0 -3.701807,1.89128 c -5.218583,2.66621 -8.2199579,6.79172 -9.3369311,12.834 -0.5630153,3.04563 -0.8033227,11.95763 -0.6114175,22.67493 0.2869777,16.0268 0.480889,17.96759 2.1001159,21.01942 0.9811699,1.84926 2.7305347,4.24561 3.8874777,5.32522 4.772286,4.45331 -1.275823,4.26475 138.060135,4.30445 l 129.49292,0.0369 4.27547,-2.13056 z M 165.96228,199.38559 c 19.07978,-1.5207 30.90493,-3.65559 43.91919,-7.9291 37.65406,-12.36448 64.73797,-38.84755 71.62691,-70.03791 2.05632,-9.31018 1.83054,-25.536736 -0.4707,-33.828256 C 274.89886,65.471726 258.61715,45.579539 235.69711,32.19546 202.85569,13.017835 158.2037,7.7255922 119.24624,18.393472 93.222434,25.519674 69.248684,40.84698 55.258077,59.303466 c -5.155369,6.80099 -12.117316,20.586392 -13.861011,27.446288 -1.972265,7.759111 -2.839883,18.630466 -2.079604,26.057676 0.861701,8.41801 1.274436,10.29427 3.94393,17.92878 l 2.154191,6.1608 -3.401312,3.50576 c -20.144562,20.76318 0.179396,44.03821 47.732354,54.66315 23.579335,5.26842 47.384245,6.61761 76.215655,4.31967 z"
       id="path3873"
       inkscape:export-filename="D:\camcansvn\CCUI\CameraCanvasUI\Icons\Move.png"
       inkscape:export-xdpi="90"
       inkscape:export-ydpi="90" />
  </g>
  <g
     inkscape:label="Bkgrd"
     inkscape:groupmode="layer"
     id="layer1"
     transform="translate(0,-752.36218)"
     style="display:inline">
    <path
       style="fill:none"
       d="m 10.655083,297.87851 c -2.0375471,-1.0757 -4.8394016,-3.56689 -6.2263426,-5.536 L 1.9070296,288.76235 1.6581441,151.61153 C 1.4842294,55.774134 1.680876,13.522613 2.310964,11.346451 3.5257046,7.151052 6.9980492,3.2023918 11.118528,1.330718 c 3.250647,-1.47656384 9.294249,-1.54386377 140.226872,-1.56152877 121.62785,-0.0164096 137.17574,0.12607924 139.94348,1.28251337 3.96293,1.6558216 6.65998,4.1788507 8.68212,8.1219552 1.55304,3.0283642 1.5988,7.0923672 1.58088,140.3752422 -0.0177,131.64678 -0.0819,137.394 -1.57025,140.61886 -1.87805,4.06919 -4.53911,6.63009 -8.69275,8.36559 -2.76713,1.15619 -18.35081,1.30097 -140.02142,1.30097 l -136.907746,0 -3.704631,-1.95581 0,0 z M 283.6609,291.81977 c 2.749,-1.36988 5.13376,-3.39562 6.67946,-5.67385 l 2.40399,-3.54329 0,-22.8323 0,-22.8323 -2.52171,-3.58113 c -1.38694,-1.96962 -4.1888,-4.46125 -6.22634,-5.53695 l -3.70464,-1.95581 -130.39836,0 -130.398363,0 -3.701807,1.89128 c -5.218583,2.66621 -8.2199579,6.79172 -9.3369311,12.834 -0.5630153,3.04563 -0.8033227,11.95763 -0.6114175,22.67493 0.2869777,16.0268 0.480889,17.96759 2.1001159,21.01942 0.9811699,1.84926 2.7305347,4.24561 3.8874777,5.32522 4.772286,4.45331 -1.275823,4.26475 138.060135,4.30445 l 129.49292,0.0369 4.27547,-2.13056 z M 165.96228,199.38559 c 19.07978,-1.5207 30.90493,-3.65559 43.91919,-7.9291 37.65406,-12.36448 64.73797,-38.84755 71.62691,-70.03791 2.05632,-9.31018 1.83054,-25.536736 -0.4707,-33.828256 C 274.89886,65.471726 258.61715,45.579539 235.69711,32.19546 202.85569,13.017835 158.2037,7.7255922 119.24624,18.393472 93.222434,25.519674 69.248684,40.84698 55.258077,59.303466 c -5.155369,6.80099 -12.117316,20.586392 -13.861011,27.446288 -1.972265,7.759111 -2.839883,18.630466 -2.079604,26.057676 0.861701,8.41801 1.274436,10.29427 3.94393,17.92878 l 2.154191,6.1608 -3.401312,3.50576 c -20.144562,20.76318 0.179396,44.03821 47.732354,54.66315 23.579335,5.26842 47.384245,6.61761 76.215655,4.31967 z"
       id="path3875"
       transform="translate(0,752.36218)"
       inkscape:export-filename="D:\camcansvn\CCUI\CameraCanvasUI\Icons\Move.png"
       inkscape:export-xdpi="90"
       inkscape:export-ydpi="90" />
    <path
       style="fill:none"
       d="m 10.655083,297.87851 c -2.0375471,-1.0757 -4.8394016,-3.56689 -6.2263426,-5.536 L 1.9070296,288.76235 1.6581441,151.61153 C 1.4842294,55.774134 1.680876,13.522613 2.310964,11.346451 3.5257046,7.151052 6.9980492,3.2023918 11.118528,1.330718 c 3.250647,-1.47656384 9.294249,-1.54386377 140.226872,-1.56152877 121.62785,-0.0164096 137.17574,0.12607924 139.94348,1.28251337 3.96293,1.6558216 6.65998,4.1788507 8.68212,8.1219552 1.55304,3.0283642 1.5988,7.0923672 1.58088,140.3752422 -0.0177,131.64678 -0.0819,137.394 -1.57025,140.61886 -1.87805,4.06919 -4.53911,6.63009 -8.69275,8.36559 -2.76713,1.15619 -18.35081,1.30097 -140.02142,1.30097 l -136.907746,0 -3.704631,-1.95581 0,0 z M 283.6609,291.81977 c 2.749,-1.36988 5.13376,-3.39562 6.67946,-5.67385 l 2.40399,-3.54329 0,-22.8323 0,-22.8323 -2.52171,-3.58113 c -1.38694,-1.96962 -4.1888,-4.46125 -6.22634,-5.53695 l -3.70464,-1.95581 -130.39836,0 -130.398363,0 -3.701807,1.89128 c -5.218583,2.66621 -8.2199579,6.79172 -9.3369311,12.834 -0.5630153,3.04563 -0.8033227,11.95763 -0.6114175,22.67493 0.2869777,16.0268 0.480889,17.96759 2.1001159,21.01942 0.9811699,1.84926 2.7305347,4.24561 3.8874777,5.32522 4.772286,4.45331 -1.275823,4.26475 138.060135,4.30445 l 129.49292,0.0369 4.27547,-2.13056 z M 165.96228,199.38559 c 19.07978,-1.5207 30.90493,-3.65559 43.91919,-7.9291 37.65406,-12.36448 64.73797,-38.84755 71.62691,-70.03791 2.05632,-9.31018 1.83054,-25.536736 -0.4707,-33.828256 C 274.89886,65.471726 258.61715,45.579539 235.69711,32.19546 202.85569,13.017835 158.2037,7.7255922 119.24624,18.393472 93.222434,25.519674 69.248684,40.84698 55.258077,59.303466 c -5.155369,6.80099 -12.117316,20.586392 -13.861011,27.446288 -1.972265,7.759111 -2.839883,18.630466 -2.079604,26.057676 0.861701,8.41801 1.274436,10.29427 3.94393,17.92878 l 2.154191,6.1608 -3.401312,3.50576 c -20.144562,20.76318 0.179396,44.03821 47.732354,54.66315 23.579335,5.26842 47.384245,6.61761 76.215655,4.31967 z"
       id="path3877"
       transform="translate(0,752.36218)"
       inkscape:export-filename="D:\camcansvn\CCUI\CameraCanvasUI\Icons\Move.png"
       inkscape:export-xdpi="90"
       inkscape:export-ydpi="90" />
    <path
       style="fill:none"
       d="m 10.655083,297.87851 c -2.0375471,-1.0757 -4.8394016,-3.56689 -6.2263426,-5.536 L 1.9070296,288.76235 1.6581441,151.61153 C 1.4842294,55.774134 1.680876,13.522613 2.310964,11.346451 3.5257046,7.151052 6.9980492,3.2023918 11.118528,1.330718 c 3.250647,-1.47656384 9.294249,-1.54386377 140.226872,-1.56152877 121.62785,-0.0164096 137.17574,0.12607924 139.94348,1.28251337 3.96293,1.6558216 6.65998,4.1788507 8.68212,8.1219552 1.55304,3.0283642 1.5988,7.0923672 1.58088,140.3752422 -0.0177,131.64678 -0.0819,137.394 -1.57025,140.61886 -1.87805,4.06919 -4.53911,6.63009 -8.69275,8.36559 -2.76713,1.15619 -18.35081,1.30097 -140.02142,1.30097 l -136.907746,0 -3.704631,-1.95581 0,0 z M 283.6609,291.81977 c 2.749,-1.36988 5.13376,-3.39562 6.67946,-5.67385 l 2.40399,-3.54329 0,-22.8323 0,-22.8323 -2.52171,-3.58113 c -1.38694,-1.96962 -4.1888,-4.46125 -6.22634,-5.53695 l -3.70464,-1.95581 -130.39836,0 -130.398363,0 -3.701807,1.89128 c -5.218583,2.66621 -8.2199579,6.79172 -9.3369311,12.834 -0.5630153,3.04563 -0.8033227,11.95763 -0.6114175,22.67493 0.2869777,16.0268 0.480889,17.96759 2.1001159,21.01942 0.9811699,1.84926 2.7305347,4.24561 3.8874777,5.32522 4.772286,4.45331 -1.275823,4.26475 138.060135,4.30445 l 129.49292,0.0369 4.27547,-2.13056 z M 165.96228,199.38559 c 19.07978,-1.5207 30.90493,-3.65559 43.91919,-7.9291 37.65406,-12.36448 64.73797,-38.84755 71.62691,-70.03791 2.05632,-9.31018 1.83054,-25.536736 -0.4707,-33.828256 C 274.89886,65.471726 258.61715,45.579539 235.69711,32.19546 202.85569,13.017835 158.2037,7.7255922 119.24624,18.393472 93.222434,25.519674 69.248684,40.84698 55.258077,59.303466 c -5.155369,6.80099 -12.117316,20.586392 -13.861011,27.446288 -1.972265,7.759111 -2.839883,18.630466 -2.079604,26.057676 0.861701,8.41801 1.274436,10.29427 3.94393,17.92878 l 2.154191,6.1608 -3.401312,3.50576 c -20.144562,20.76318 0.179396,44.03821 47.732354,54.66315 23.579335,5.26842 47.384245,6.61761 76.215655,4.31967 z"
       id="path3879"
       transform="translate(0,752.36218)"
       inkscape:export-filename="D:\camcansvn\CCUI\CameraCanvasUI\Icons\Move.png"
       inkscape:export-xdpi="90"
       inkscape:export-ydpi="90" />
    <path
       style="fill:none"
       d="m 10.655083,297.87851 c -2.0375471,-1.0757 -4.8394016,-3.56689 -6.2263426,-5.536 L 1.9070296,288.76235 1.6581441,151.61153 C 1.4842294,55.774134 1.680876,13.522613 2.310964,11.346451 3.5257046,7.151052 6.9980492,3.2023918 11.118528,1.330718 c 3.250647,-1.47656384 9.294249,-1.54386377 140.226872,-1.56152877 121.62785,-0.0164096 137.17574,0.12607924 139.94348,1.28251337 3.96293,1.6558216 6.65998,4.1788507 8.68212,8.1219552 1.55304,3.0283642 1.5988,7.0923672 1.58088,140.3752422 -0.0177,131.64678 -0.0819,137.394 -1.57025,140.61886 -1.87805,4.06919 -4.53911,6.63009 -8.69275,8.36559 -2.76713,1.15619 -18.35081,1.30097 -140.02142,1.30097 l -136.907746,0 -3.704631,-1.95581 0,0 z M 283.6609,291.81977 c 2.749,-1.36988 5.13376,-3.39562 6.67946,-5.67385 l 2.40399,-3.54329 0,-22.8323 0,-22.8323 -2.52171,-3.58113 c -1.38694,-1.96962 -4.1888,-4.46125 -6.22634,-5.53695 l -3.70464,-1.95581 -130.39836,0 -130.398363,0 -3.701807,1.89128 c -5.218583,2.66621 -8.2199579,6.79172 -9.3369311,12.834 -0.5630153,3.04563 -0.8033227,11.95763 -0.6114175,22.67493 0.2869777,16.0268 0.480889,17.96759 2.1001159,21.01942 0.9811699,1.84926 2.7305347,4.24561 3.8874777,5.32522 4.772286,4.45331 -1.275823,4.26475 138.060135,4.30445 l 129.49292,0.0369 4.27547,-2.13056 z M 165.96228,199.38559 c 19.07978,-1.5207 30.90493,-3.65559 43.91919,-7.9291 37.65406,-12.36448 64.73797,-38.84755 71.62691,-70.03791 2.05632,-9.31018 1.83054,-25.536736 -0.4707,-33.828256 C 274.89886,65.471726 258.61715,45.579539 235.69711,32.19546 202.85569,13.017835 158.2037,7.7255922 119.24624,18.393472 93.222434,25.519674 69.248684,40.84698 55.258077,59.303466 c -5.155369,6.80099 -12.117316,20.586392 -13.861011,27.446288 -1.972265,7.759111 -2.839883,18.630466 -2.079604,26.057676 0.861701,8.41801 1.274436,10.29427 3.94393,17.92878 l 2.154191,6.1608 -3.401312,3.50576 c -20.144562,20.76318 0.179396,44.03821 47.732354,54.66315 23.579335,5.26842 47.384245,6.61761 76.215655,4.31967 z"
       id="path3881"
       transform="translate(0,752.36218)"
       inkscape:export-filename="D:\camcansvn\CCUI\CameraCanvasUI\Icons\Move.png"
       inkscape:export-xdpi="90"
       inkscape:export-ydpi="90" />
    <path
       style="fill:none"
       d="m 10.655083,297.87851 c -2.0375471,-1.0757 -4.8394016,-3.56689 -6.2263426,-5.536 L 1.9070296,288.76235 1.6581441,151.61153 C 1.4842294,55.774134 1.680876,13.522613 2.310964,11.346451 3.5257046,7.151052 6.9980492,3.2023918 11.118528,1.330718 c 3.250647,-1.47656384 9.294249,-1.54386377 140.226872,-1.56152877 121.62785,-0.0164096 137.17574,0.12607924 139.94348,1.28251337 3.96293,1.6558216 6.65998,4.1788507 8.68212,8.1219552 1.55304,3.0283642 1.5988,7.0923672 1.58088,140.3752422 -0.0177,131.64678 -0.0819,137.394 -1.57025,140.61886 -1.87805,4.06919 -4.53911,6.63009 -8.69275,8.36559 -2.76713,1.15619 -18.35081,1.30097 -140.02142,1.30097 l -136.907746,0 -3.704631,-1.95581 0,0 z M 283.6609,291.81977 c 2.749,-1.36988 5.13376,-3.39562 6.67946,-5.67385 l 2.40399,-3.54329 0,-22.8323 0,-22.8323 -2.52171,-3.58113 c -1.38694,-1.96962 -4.1888,-4.46125 -6.22634,-5.53695 l -3.70464,-1.95581 -130.39836,0 -130.398363,0 -3.701807,1.89128 c -5.218583,2.66621 -8.2199579,6.79172 -9.3369311,12.834 -0.5630153,3.04563 -0.8033227,11.95763 -0.6114175,22.67493 0.2869777,16.0268 0.480889,17.96759 2.1001159,21.01942 0.9811699,1.84926 2.7305347,4.24561 3.8874777,5.32522 4.772286,4.45331 -1.275823,4.26475 138.060135,4.30445 l 129.49292,0.0369 4.27547,-2.13056 z M 165.96228,199.38559 c 19.07978,-1.5207 30.90493,-3.65559 43.91919,-7.9291 37.65406,-12.36448 64.73797,-38.84755 71.62691,-70.03791 2.05632,-9.31018 1.83054,-25.536736 -0.4707,-33.828256 C 274.89886,65.471726 258.61715,45.579539 235.69711,32.19546 202.85569,13.017835 158.2037,7.7255922 119.24624,18.393472 93.222434,25.519674 69.248684,40.84698 55.258077,59.303466 c -5.155369,6.80099 -12.117316,20.586392 -13.861011,27.446288 -1.972265,7.759111 -2.839883,18.630466 -2.079604,26.057676 0.861701,8.41801 1.274436,10.29427 3.94393,17.92878 l 2.154191,6.1608 -3.401312,3.50576 c -20.144562,20.76318 0.179396,44.03821 47.732354,54.66315 23.579335,5.26842 47.384245,6.61761 76.215655,4.31967 z"
       id="path3883"
       transform="translate(0,752.36218)"
       inkscape:export-filename="D:\camcansvn\CCUI\CameraCanvasUI\Icons\Move.png"
       inkscape:export-xdpi="90"
       inkscape:export-ydpi="90" />
    <image
       style="display:inline"
       xlink:href="file:///D:/camcansvn/CCUI/CameraCanvasUI/Icon%20SVG%20Files/sunflower.jpg"
       width="144.35518"
       height="108.26638"
       id="image2921"
       x="-340.31952"
       y="955.4884"
       clip-path="url(#clipPath3154)"
       transform="matrix(1.8356237,0,0,1.8356237,643.92944,-986.4047)"
       inkscape:export-filename="D:\camcansvn\CCUI\CameraCanvasUI\Icons\Move.png"
       inkscape:export-xdpi="90"
       inkscape:export-ydpi="90" />
  </g>
  <g
     inkscape:groupmode="layer"
     id="layer2"
     inkscape:label="TextBkgrd"
     style="display:inline">
    <rect
       style="fill:#ffffff"
       id="rect2860-7"
       width="286.37646"
       height="67.43705"
       x="6.4665661"
       y="226.09639"
       rx="17.024385"
       ry="17.024385"
       inkscape:export-filename="D:\camcansvn\CCUI\CameraCanvasUI\Icons\Move.png"
       inkscape:export-xdpi="90"
       inkscape:export-ydpi="90" />
  </g>
  <g
     inkscape:groupmode="layer"
     id="layer3"
     inkscape:label="Text">
    <text
       xml:space="preserve"
       style="font-size:80px;font-style:normal;font-weight:normal;fill:#000000;fill-opacity:1;stroke:none;font-family:Arial;-inkscape-font-specification:Arial"
       x="16.638077"
       y="287.91534"
       id="text2889"
       inkscape:export-filename="D:\camcansvn\CCUI\CameraCanvasUI\Icons\Move.png"
       inkscape:export-xdpi="90"
       inkscape:export-ydpi="90"><tspan
         sodipodi:role="line"
         id="tspan2891"
         x="16.638077"
         y="287.91534"
         style="font-size:80px;font-style:normal;font-variant:normal;font-weight:900;font-stretch:normal;font-family:Arial Black;-inkscape-font-specification:Arial Black Heavy">MOVE</tspan></text>
    <g
       id="g3592"
       transform="matrix(2.0620467,0,0,2.0620467,1042.4165,-298.3326)"
       inkscape:export-filename="D:\camcansvn\CCUI\CameraCanvasUI\Icons\Move.png"
       inkscape:export-xdpi="90"
       inkscape:export-ydpi="90">
      <g
         id="g4417"
         transform="translate(-456.37999,211.60168)">
        <path
           transform="matrix(1.214466,0,0,0.595458,-6.6957306,16.281223)"
           d="m 40.481863,36.421127 c 0,4.637477 -7.004387,8.396894 -15.644737,8.396894 -8.64035,0 -15.6447375,-3.759417 -15.6447375,-8.396894 0,-4.637476 7.0043875,-8.396893 15.6447375,-8.396893 8.64035,0 15.644737,3.759417 15.644737,8.396893 z"
           sodipodi:ry="8.3968935"
           sodipodi:rx="15.644737"
           sodipodi:cy="36.421127"
           sodipodi:cx="24.837126"
           id="path8660"
           style="opacity:0.20454544;fill:url(#radialGradient3614);fill-opacity:1;fill-rule:evenodd;stroke:none;stroke-width:1;marker:none;visibility:visible;display:inline;overflow:visible"
           sodipodi:type="arc" />
        <path
           sodipodi:nodetypes="cccccccc"
           id="path8643"
           d="m 31.977539,5.467682 -18.005029,0.00391 0,12.991626 -7.995366,0.0078 17.144722,19.997443 16.846251,-19.998071 -7.995882,-0.0038 0.0053,-12.998926 z"
           style="fill:url(#radialGradient3616);fill-opacity:1;fill-rule:evenodd;stroke:#a40000;stroke-width:1.00000036;stroke-linecap:round;stroke-linejoin:round;stroke-miterlimit:10;stroke-opacity:1;stroke-dasharray:none;stroke-dashoffset:0;marker:none;visibility:visible;display:inline;overflow:visible" />
        <path
           sodipodi:nodetypes="cccccc"
           id="path8645"
           d="m 7.066786,18.974215 7.406391,-0.01172 -0.0027,-12.992837 15.378556,0.00915 C 29.07913,24.319802 19.126403,16.971885 14.467393,27.625691 L 7.066786,18.974215 z"
           style="opacity:0.5080214;fill:url(#radialGradient3618);fill-opacity:1;fill-rule:evenodd;stroke:none;stroke-width:1;marker:none;visibility:visible;display:inline;overflow:visible" />
        <path
           style="opacity:0.48128339;fill:none;stroke:#ffffff;stroke-width:1.00000036;stroke-linecap:butt;stroke-linejoin:miter;stroke-miterlimit:10;stroke-opacity:1;stroke-dasharray:none;stroke-dashoffset:0;marker:none;visibility:visible;display:inline;overflow:visible"
           d="m 30.975971,6.471588 -16.001405,-0.00391 0,12.99295 -6.816811,0.01563 14.954276,17.452585 14.706527,-17.456942 -6.839901,-0.0052 -0.0027,-12.995065 z"
           id="path8658"
           sodipodi:nodetypes="cccccccc" />
      </g>
      <g
         id="g4423"
         transform="translate(-456.37999,211.60168)">
        <path
           transform="matrix(1.271186,0,0,1.271186,24.808045,-48.207199)"
           d="m 40.481863,36.421127 c 0,4.637477 -7.004387,8.396894 -15.644737,8.396894 -8.64035,0 -15.6447375,-3.759417 -15.6447375,-8.396894 0,-4.637476 7.0043875,-8.396893 15.6447375,-8.396893 8.64035,0 15.644737,3.759417 15.644737,8.396893 z"
           sodipodi:ry="8.3968935"
           sodipodi:rx="15.644737"
           sodipodi:cy="36.421127"
           sodipodi:cx="24.837126"
           id="path2564"
           style="opacity:0.29946522;fill:url(#radialGradient3620);fill-opacity:1;fill-rule:evenodd;stroke:none;stroke-width:1;marker:none;visibility:visible;display:inline;overflow:visible"
           sodipodi:type="arc" />
        <path
           sodipodi:nodetypes="cccccccc"
           id="path2566"
           d="m 41.481609,-17.588061 0,16.99442 12.983812,0 0,8.545038 19.959835,-16.906441 -20.078645,-17.025248 0,8.397535 -12.865002,-0.0053 z"
           style="fill:url(#radialGradient3622);fill-opacity:1;fill-rule:evenodd;stroke:#a40000;stroke-width:1;stroke-linecap:round;stroke-linejoin:round;stroke-miterlimit:10;stroke-opacity:1;stroke-dasharray:none;stroke-dashoffset:0;marker:none;visibility:visible;display:inline;overflow:visible" />
        <path
           sodipodi:nodetypes="cccccc"
           id="path2568"
           d="m 54.889806,-24.856906 0,7.806475 -12.81717,0 0,9.040713 c 17.75,2 16.633537,-7.455288 31.383537,-0.955288 l -18.566367,-15.8919 z"
           style="opacity:0.5080214;fill:url(#radialGradient3624);fill-opacity:1;fill-rule:evenodd;stroke:none;stroke-width:1;marker:none;visibility:visible;display:inline;overflow:visible" />
        <path
           style="opacity:0.48128339;fill:none;stroke:#ffffff;stroke-width:1.00000036;stroke-linecap:butt;stroke-linejoin:miter;stroke-miterlimit:10;stroke-opacity:1;stroke-dasharray:none;stroke-dashoffset:0;marker:none;visibility:visible;display:inline;overflow:visible"
           d="m 42.465123,-16.543517 0,14.98444 12.985367,0 0,7.395166 17.478014,-14.795691 -17.493975,-14.7804 0,7.201382 -12.969406,-0.0049 z"
           id="path2570"
           sodipodi:nodetypes="cccccccc" />
      </g>
      <g
         id="g4435"
         transform="translate(-456.37999,211.60168)">
        <path
           transform="matrix(-1.271186,0,0,1.271186,20.167428,-48.453333)"
           d="m 40.481863,36.421127 c 0,4.637477 -7.004387,8.396894 -15.644737,8.396894 -8.64035,0 -15.6447375,-3.759417 -15.6447375,-8.396894 0,-4.637476 7.0043875,-8.396893 15.6447375,-8.396893 8.64035,0 15.644737,3.759417 15.644737,8.396893 z"
           sodipodi:ry="8.3968935"
           sodipodi:rx="15.644737"
           sodipodi:cy="36.421127"
           sodipodi:cx="24.837126"
           id="path3034"
           style="opacity:0.29946522;fill:url(#radialGradient3626);fill-opacity:1;fill-rule:evenodd;stroke:none;stroke-width:1;marker:none;visibility:visible;display:inline;overflow:visible"
           sodipodi:type="arc" />
        <path
           sodipodi:nodetypes="cccccccc"
           id="path3036"
           d="m 3.462604,-17.677942 0,16.99442 -12.952563,0 0,8.482538 -19.959836,-17.000191 19.953646,-17.243998 0,8.772535 12.958753,-0.0053 z"
           style="fill:url(#radialGradient3628);fill-opacity:1;fill-rule:evenodd;stroke:#a40000;stroke-width:1.00000036;stroke-linecap:round;stroke-linejoin:round;stroke-miterlimit:10;stroke-opacity:1;stroke-dasharray:none;stroke-dashoffset:0;marker:none;visibility:visible;display:inline;overflow:visible" />
        <path
           sodipodi:nodetypes="cccccc"
           id="path3038"
           d="m -10.039344,-25.196786 0,8.056474 12.94217,0 0,8.884463 c -16.75,-6.25 -16.133537,5.294712 -31.383538,-0.955288 l 18.441368,-15.985649 z"
           style="opacity:0.5080214;fill:url(#radialGradient3630);fill-opacity:1;fill-rule:evenodd;stroke:none;stroke-width:1;marker:none;visibility:visible;display:inline;overflow:visible" />
        <path
           style="opacity:0.48128339;fill:none;stroke:#ffffff;stroke-width:1.00000036;stroke-linecap:butt;stroke-linejoin:miter;stroke-miterlimit:10;stroke-opacity:1;stroke-dasharray:none;stroke-dashoffset:0;marker:none;visibility:visible;display:inline;overflow:visible"
           d="m 2.447839,-16.633398 0,14.92194 -12.985367,0 0,7.301416 -17.321765,-14.795691 17.337726,-14.9054 0,7.482632 12.969406,-0.0049 z"
           id="path3040"
           sodipodi:nodetypes="cccccccc" />
      </g>
      <g
         id="g4429"
         transform="translate(-456.37999,211.60168)">
        <path
           transform="matrix(1.214466,0,0,0.595458,-6.6694983,-49.812628)"
           d="m 40.481863,36.421127 c 0,4.637477 -7.004387,8.396894 -15.644737,8.396894 -8.64035,0 -15.6447375,-3.759417 -15.6447375,-8.396894 0,-4.637476 7.0043875,-8.396893 15.6447375,-8.396893 8.64035,0 15.644737,3.759417 15.644737,8.396893 z"
           sodipodi:ry="8.3968935"
           sodipodi:rx="15.644737"
           sodipodi:cy="36.421127"
           sodipodi:cx="24.837126"
           id="path3191"
           style="opacity:0.29946522;fill:url(#radialGradient3632);fill-opacity:1;fill-rule:evenodd;stroke:none;stroke-width:1;marker:none;visibility:visible;display:inline;overflow:visible"
           sodipodi:type="arc" />
        <path
           sodipodi:nodetypes="cccccccc"
           id="path3193"
           d="m 13.98614,-27.625378 17.977685,0 0,-12.952563 8.030523,0 -17.125191,-20.048224 -16.8462508,19.990258 7.9685378,0.06629 -0.0053,12.944238 z"
           style="fill:url(#radialGradient3634);fill-opacity:1;fill-rule:evenodd;stroke:#a40000;stroke-width:1.00000036;stroke-linecap:round;stroke-linejoin:round;stroke-miterlimit:10;stroke-opacity:1;stroke-dasharray:none;stroke-dashoffset:0;marker:none;visibility:visible;display:inline;overflow:visible" />
        <path
           sodipodi:nodetypes="cccscc"
           id="path3195"
           d="m 7.0798714,-41.092848 7.4102976,0 0.0666,6.561809 c 5.655612,-11.000461 15.993095,-8.844411 16.594346,-15.627665 0,0 -8.28983,-9.544705 -8.28983,-9.544705 L 7.0798714,-41.092848 z"
           style="opacity:0.5080214;fill:url(#radialGradient3636);fill-opacity:1;fill-rule:evenodd;stroke:none;stroke-width:1;marker:none;visibility:visible;display:inline;overflow:visible" />
        <path
           style="opacity:0.48128339;fill:none;stroke:#ffffff;stroke-width:1.00000036;stroke-linecap:butt;stroke-linejoin:miter;stroke-miterlimit:10;stroke-opacity:1;stroke-dasharray:none;stroke-dashoffset:0;marker:none;visibility:visible;display:inline;overflow:visible"
           d="m 15.097083,-28.625378 15.899843,0 0,-12.99295 6.808998,0 -14.95037,-17.43696 -14.7065265,17.48038 6.8203695,-0.0221 0.127686,12.971627 z"
           id="path3197"
           sodipodi:nodetypes="cccccccc" />
      </g>
    </g>
  </g>
  <g
     inkscape:groupmode="layer"
     id="layer4"
     inkscape:label="Palette" />
  <g
     inkscape:groupmode="layer"
     id="layer5"
     inkscape:label="Colors" />
</svg>
